/* XPM */
static char *_3883_605f292b01224222e8f1c925172ce8e794aa0bf1e6cf0a32b3743b5e706f4e23[] = {
/* columns rows colors chars-per-pixel */
"64 64 208 2 ",
"   c #1A1819",
".  c #221A17",
"X  c #2D261F",
"o  c #34291E",
"O  c #221F22",
"+  c #222224",
"@  c #2C2A2F",
"#  c #322B27",
"$  c #353127",
"%  c #3F3429",
"&  c #343439",
"*  c #4D341F",
"=  c #453A2E",
"-  c #493829",
";  c #54372C",
":  c #4D3E35",
">  c #533B32",
",  c #544223",
"<  c #59482A",
"1  c #46423C",
"2  c #564438",
"3  c #5B4B3C",
"4  c #5F5033",
"5  c #71592C",
"6  c #624D3A",
"7  c #655338",
"8  c #6E6037",
"9  c #7A663B",
"0  c #5B4C41",
"q  c #584D45",
"w  c #5E5245",
"e  c #5C5847",
"r  c #5C544C",
"t  c #424651",
"y  c #5F5650",
"u  c #645545",
"i  c #645549",
"p  c #675849",
"a  c #6D5E4C",
"s  c #735E45",
"d  c #645A51",
"f  c #6B5D53",
"g  c #705D55",
"h  c #73624D",
"j  c #78664A",
"k  c #6D6256",
"l  c #656058",
"z  c #6D635B",
"x  c #716454",
"c  c #766854",
"v  c #7C6C52",
"b  c #72665A",
"n  c #74695D",
"m  c #7A6D5C",
"M  c #7F715B",
"N  c #756C63",
"B  c #7A6E63",
"V  c #776E69",
"C  c #786F68",
"Z  c #7B7165",
"A  c #7C746A",
"S  c #7F796D",
"D  c #7E7770",
"F  c #7F7A72",
"G  c #846D39",
"H  c #88753E",
"J  c #917739",
"K  c #846F45",
"L  c #8C7D4E",
"P  c #816D5A",
"I  c #867454",
"U  c #89765A",
"Y  c #8C7A5C",
"T  c #827463",
"R  c #857967",
"E  c #8C7B64",
"W  c #81766B",
"Q  c #89766C",
"!  c #837A6D",
"~  c #8B7C6C",
"^  c #907E66",
"/  c #857C73",
"(  c #8A7E74",
")  c #897F7A",
"_  c #917B74",
"`  c #958241",
"'  c #9F8A4D",
"]  c #A79150",
"[  c #B59D59",
"{  c #8B816E",
"}  c #928367",
"|  c #94836C",
" . c #98876E",
".. c #9A896F",
"X. c #878076",
"o. c #8B8275",
"O. c #87817A",
"+. c #8C847B",
"@. c #8E887E",
"#. c #928474",
"$. c #968A73",
"%. c #9C8C73",
"&. c #91867B",
"*. c #938A7D",
"=. c #9A8C7B",
"-. c #9F9176",
";. c #9D917C",
":. c #A08E76",
">. c #A39277",
",. c #A3947C",
"<. c #A8967B",
"1. c #A6987D",
"2. c #AA9B7F",
"3. c #8E8780",
"4. c #8E8981",
"5. c #918781",
"6. c #948C83",
"7. c #9A8D82",
"8. c #958F89",
"9. c #9B8F89",
"0. c #969085",
"q. c #9B9285",
"w. c #969089",
"e. c #9C948B",
"r. c #9F988E",
"t. c #9C9691",
"y. c #9E9993",
"u. c #A39584",
"i. c #A59984",
"p. c #AB9C84",
"a. c #A2968B",
"s. c #A39B8D",
"d. c #AB9E8A",
"f. c #A19792",
"g. c #A39C93",
"h. c #A99D92",
"j. c #A49E99",
"k. c #AFA186",
"l. c #A7A08F",
"z. c #AEA18C",
"x. c #B0A187",
"c. c #B2A48C",
"v. c #B8A98F",
"b. c #A6A095",
"n. c #ABA394",
"m. c #AEA996",
"M. c #A6A19A",
"N. c #ABA59B",
"B. c #AEA99D",
"V. c #B3A692",
"C. c #B6A994",
"Z. c #BAAC95",
"A. c #B2A69C",
"S. c #B3AB9C",
"D. c #BBAE9A",
"F. c #BCB097",
"G. c #B6B09F",
"H. c #BEB19C",
"J. c #ACA6A1",
"K. c #AEAAA3",
"L. c #ABA8A4",
"P. c #B2ADA3",
"I. c #B9AEA1",
"U. c #B2AEA9",
"Y. c #B6B1A4",
"T. c #B9B3A5",
"R. c #B5B2AB",
"E. c #BAB5AC",
"W. c #BDB9AD",
"Q. c #B6B5B1",
"!. c #BAB6B2",
"~. c #BDBAB4",
"^. c #BEBCB9",
"/. c #C1B39D",
"(. c #C7B99F",
"). c #C1B6A2",
"_. c #C5B9A4",
"`. c #C6BAA7",
"'. c #C2BBAD",
"]. c #C1BDB4",
"[. c #C1BEBA",
"{. c #BFC0BB",
"}. c #CDC0A6",
"|. c #C4C1B6",
" X c #C5C3BC",
".X c #C9C6BC",
"XX c #CBC8BE",
"oX c #D0CABD",
"OX c #C6C6C2",
"+X c #C9C6C2",
"@X c #C7C9C4",
"#X c #CBCAC4",
"$X c #CDCECA",
"%X c #D2CEC4",
"&X c #D1CEC9",
"*X c #CFD0CB",
"=X c #D3D0C6",
"-X c #D2D2CD",
";X c #DAD6CB",
":X c #DCD9CF",
">X c #D5D6D1",
",X c #D7D9D4",
"<X c #DADAD5",
"1X c #DDDEDA",
"2X c #E2DFD6",
"3X c #DEE0DC",
"4X c #E0E1DD",
"5X c #E4E5E1",
/* pixels */
"c.p.p.k.>.>.>.x.2.>.c.x.Z.v.z.V.p.v.Z.c.2./.Z.Z.Z././.d./.V.c.c././.`./.`././.Z.V./././.A./.d.h.P.z.V.D.D./.D.D.C././.z.c.,.z.p.",
"p.i.1.1.:.} %.i.p.d.c.x.d.1.c.d.z.z.v.x.>.Z./.Z.Z.Z.Z.V.Z.c././././././.V././.D._.`.).`./.A.I.].I.h.d.D.).).D.D.C.D.p.p.c.p.p.%.",
"i.,.>.%.Y I %.-.,.d.c.x.d.c.x.i.z.d.v.>.2.v./.Z.V.V.C.V.c.v././.Z./.A.Z.Z./.V./.A._./.D.A.[.I.7.*.a.a.D.C.D./.D.z.v.d.c.u.c.u.<.",
"%.%...p...v P ..>.p.<.2.p.c.p.p.x.c.v.<.v.v.Z.v.c.V.c.d./.v.V./.Z.V.d./.c.A./.C.V./.A.A.'.I.7.=.Q #.d.c.h.D.D.D.C.d.p.u.p.p.:.,.",
"p.i.c._.Z.k.M j } >.p.p.p.c.c.c.c.Z.c.p.k.Z.Z.C.d.Z.V.p.v.v./.v./.z.V.Z.Z.Z.D.C.z.D.h.E.I.=.a._ P ~ p.d.V.Z.D.C.Z.x.c.c.p.p.^ p.",
"H.z.H._./.C.k.j s  .x.x.d.c.d.c.c.v.x.:.d.n.c.c./.V.V.v.c.c.p.c.h.p.V.C.V.V.C.V.d.d.I.].a.a.h.h.#.E a.C.C.C.Z.V.c.d.,.p.p.#. .p.",
"H.z.C./.`.H.Z.$.s U ^ :.c.c.z.c.c.c.c.>.x.z.z.p.d.p.<.x.p.p.u.p.u.u.d.p.u.p.p.d.9.9.'.I.h.f.u._ | ^ u.V.A.D.V.z.d.,.:.<.>. .:.:.",
"H.z.C.Z.)._.C.V.^ >. .^  .<.c.z.x.d.p.x.d.c.p.i.u.u._ x.p.x.<.p.,.=.u.:.u.u.u._ T J.'.h.a.a.a._ ~ T ,.A.Z.C.z.V.u.%.,.=.>.,.<.i.",
"Z.D.d.c.D._./.d.<.c./.c.,.E  .:.p.p.p.Z.z.C.k.z.z.V.,.x.v.z.z.z.u.u.a.7.e.&.X.n 7.].A.a.f.f.h.h.p._ 7.z.C.V.Z.d.=.E } Y Y %.,.-.",
"D.).V.d.u.V.d.d.c.v./.D._.v.p.,...{ ..>.1.C.c.C.D.c.d.C.C.C.k.i.%.=.e.w.@.S Z B E.U.h.n.A.I.A.A.h.p.s.C.z.d.c.u.v.p...U E .... .",
"D.Z.p.d.u.p.V.V.V.v./.Z.D./.)./.H.D.c.v.c.x.1.z.c.i.i.;.;.$.o.X.R o.*.w.7./ n 9.E.h.s.h.h.h.A.I.'./.I.D.d.,.>.D._.}./.I Y | E Y ",
"h.I.E.E.'.A.h.z.c.v.v.D.Z./.V.D.Z.F.v.(._./.H.z.i.#.M X.X.S F A n X.w.e.6.! B N.h.7.7.h.A.h.A.D.z.h.I.).D.,.p.v.Z.(.(.2.} >.%.p.",
"s.N.P.S.E..X%X].d.V.Z.Z.D.S.c.h.d.n.a.l.l.=.@.F / z n C D S / X.k / e.e.8.4.( q.) _ 5.a.a.9.7.7.=.:.a.Z.`.C.c.c././.(./.%.p.x.d.",
"a.=.o.&.a.a.h. X&XT.u.q.e.r.r.7.*.6.6.+./ S S A Z d y y N C S O.C +.w.8.w.0.o.o.! ! _ 5._ Q Q _ _ Q a.h.).C.D.d./././.k.2.z.1.p.",
"D.q.R ~ &.7.u.h.!.&X%XM.3.+.6.o.+.o.r.w.@./ 3.3.N r r y z V A F N X.e.e.0.X.! W g N Q ) &._ 9.a.:.h.h.d.D.z.k.C./.v.v.,.c.c.1.p.",
"H.u.Q v #.h.a.9.7.N.[.&X~.6.! / +.w.t.w.8./ +.4.X.z l r z V V 3.A / e.N.g./ ! R ! +.5.Q 5.h.J.f.9.7.5.9.V./.p.p.v.2.>.x.Z.v.c.d.",
"/.d._ P u.s.a.s.s.u.a.P.].].6.b / w.8.8.6.+./ / D D A r N D ! O./ 6.g.U.h.f.j.f.f.j.5.8.L.L.f.f.A.7.j.f.h.D.).D.c.1.,.c.c.D./.c.",
"_.V.=.E $.#.a.a.a.A.A.h.h.J.g.N A 6.5.6.j.9./ C S 4.4.l N A O.8./ S w.h.j.L.j.f.j.8.5.8.L.f.f.U.J.j.h.9.a.A.).D.c.,.p.c.c.v.Z.p.",
"_.Z.,.T ~ =.u.h.T.R.N.J.f.8.( C N / w.g.J.r.N A 4.w.3.A N A 8.t.6.+.) e.J.J.J.h.8.8.f.t.j.j.U.L.U.K.J.a.7.d.D.A.D.p.z.c.z.c.z.z.",
"C.Z.u.~ _ _ h.A.N.A.N.g.t.5.C f z @.w.U.J.@.C 3.t.y.4.A z F e.M.e.) ) t.h.j.J.f.j.U.j.L.L.L.J.J.J.K.j.&.#.8.A.D.S.1.c.v.Z.C.x.;.",
"_.Z.p.%.^ a.V.n.A.N.a.5.A V z z / 8.f.g.f.A Z 3.M.j.8.V N 6.f.N.g.e./ / 9.J.K.U.Q.!.U.[.Q.U.L.J.j.j.6.( 6.j.A.A.S.p.C.C.Z.c.V.{ ",
"/.Z.Z.h.^ d.A.n.h.g.5./ C z ) ) +.6.w.g.*.C z V w.M.4.F z / t.P.r.+.*.g.f.I.U.].Q.[.!.^.[.[.U.J.j.9.+.) f.N.J.P.S.z.C.V.v.d.z.| ",
"`.v.v.V.z.h.h.h.e.5.@.A O.O.F / @.8.g.g.w.C N D 8.y.e.+.b / M.U.e.o.g.R.U.U.].[.[.!.[.OX+X[.U.U.K.j.9.9.e.h.L.P.U.S.V.V.F.z.c.| ",
"/./.Z./.A.9.T W 5.j.j.j.+.3.+.3.w.j.U.L.g.5.9.+.8.M.g.3.z A g.J.8.w.E.W.U.Q.OXOX].!.^.[.OX[.Q.Q.].Q.M.j.j.P.R.R.R.P.n.V.C.z.V.z.",
").c.Z.d.q.*.*.6.t.f.y.y.8.8.3.t.j.U.[.!.P.N.N.e.@.M.f.w.f z 5.M.*.q.].!.L.!.#X&X[.U.U.^.[.!.[.!.[.[.E.!.P.U.U.U.E.E.P.V.V.z.D.d.",
"/./.Z.s.;.*.g.U.U.g.w.8.8.8.4.g.J.K.!.[.U.N.N.g.( t.e.+.n r / g.@.0.].W.s.!.&X@X[.P.P.!.!.[.[.Q.[.+X[.[.R.U.U.Q.~.Q.R.R.A.V.D.l.",
"/.D._.V.q.&.@.8.K.U.y.4.r.g.g.L.Q.~.~.[. XM.g.M.6.+.6.*.S 0 Z N.q.r. X Xn.U.+X+X XL.U.].!.Q.U.!.OX+X@X+X~.U.J.U.Q.^.Q.!.E.D.S.V.",
"_.).Z.d.=./ +.A O.5.6.8.j.h.U.U.U.^.OX[. XR.*.M.g./ +.e.*.d A N.b.r. X#XP.j.+X&X~.U.!.R.U.U.Q.[.#X$X%X+X].R.J.M.U.!.!.^.~.E.Y.Y.",
"`.).H.Z.q.Z o.+.+.A ! O.w.j.L.U.j.J.[.OX@XR.@.6.K.w.+.r.+.k Z g.g.=.~.#XR.g.[.+X X X!.U.P.U.[.+X#X$X+X+X X].J.J.U.Q.Q.^.~.Q.!.W.",
"`.).T.V.o.c n ! ! A ( 6.M.U.K.M.f.6.U.@X#X^.a.&.E.n.o.6./ n k 6.q.X.Y. X].g.U.].E.*.C b &.N.].[.!.!.+X+X[.!.U.J.L.U.Q.Q.~.^.W.U.",
").`.D.d.~ f d z ! ) w.t.M.^.!.E.K.g.g.~.$X@XM.&.R.S.+.*.+.B x +.@.w.Y.~.'.q.g.@.t o < 7 g 9.M.N.h.j.J.!.!.J.J.j.L.U.Q.^.!.!.~.E.",
").).S.d.R Z / / / 5.8.r.g.U.!.Q.~.R.g.K. X#XU.W b.S.0.+.w.o.k *.q.g.S.b.n.0.o.o . & P [ j f.A.I.!.P.h.j.y.t.w.j.J.L.L.U.Q.~.].~.",
"Z.G.m.;.o.6.6.8.t.g.g.g.M.M.U.U.R.!.R.Q.~.{.{.@.*.m.=.o.q.*.z { 0.*.s.o.6.=.9 % & t e [ L 6.R.I.R.].].U.y.w.4.8.t.y.L.L.Q.{.{.Q.",
"k.C.n.q.r.r.8.6.f.N.M.g.M.L.K.!.~.~.E.P.R.Y.T.r.m 0.{ R X.o.n z ! / Z Z s.I J e @   % [ K h.W.N.U.[.].!.L.8.4.4.w.y.L.U.Q.Q.^.^.",
";.z.s.0.e.t.w.w.f.J.P.N.g.N.U.J.M.w.! x l S @.;.~ o.M k Z Z b k C S c =.N., ` ` $   8 ] m W.e.a.E.!.!.E.U.y.8.t.y.M.L.L.U.^.^.Q.",
"-.l.y.f.g.e.+.6.K.R.U.N.y.6.! ( B 3 * - + + @ < j T M p x c m k S N Z S.B.# < ] ` K ' 8 ! ! *.g.N.R.~.R.L.M.t.j.L.U.U.Q.Q.Q.^.{.",
";.q.r.b.y.w.6.9.g.U.U.g.6.&.7.*.o.u 5 < & @ + , < - U T 6 i a b N p b ).b.1 o , G K 6 k Z ! *.g.J.R.U.K.J.J.j.L.U.Q.Q.Q.Q.{.^.Q.",
"s.q.b.b.g.0.@.6.f.b.h.g.M.P.W.R.].*.G 9 @ + O 5 5 . u i.~ w i b B n Z D.Z 3 B u.! 0 Z *.+.7.g.M.U.E.R.E.K.M.j.L.Q.{.{.~.Q.Q.Q.{.",
"e.r.y.M.g.8.+.3.e.6.6.M.!.].].].].[.I ' 4 X 4 J ; . : | u.m m *.n.a.( 7.Q = ( V.e f R q.s.b.P.E.~.~.R.K.U.L.L.R.{.{.OX{.{.{.{.{.",
"q.r.r.g.r.8.@.X.o./ *.K.].].[.!.)..XY.I G G H 5 = u : u #.T ~ d.n.A.7.W q : u u 3 i Z +.w.B.W.~.!.R.Y.~.^.R.U.R.^.{.{.~.{.Q.{.Q.",
"s.g.g.g.0.+.X.A Z F @.b.|.~..X|.R.h.g.7.R B m ~ A.s.2 - b n &.a.q.n.a.! 0 1 2 x n k B / e.n.N.N.K.Y.~.{.{.Q.Q.{.^.~.~.Q.^.Q.Q.K.",
"g.r.e.r.w.@./ Z A / @.r.U.W.].E.g.g.a.#.R o.R Z ! E u - 2 n q.a.i.V.h.*.m #.} #.$.#./ ! =.n.P.P.E. X@X@X{.K.L.U.Q.Q.~.~.Q.^.{.E.",
"g.g.g.e.=.@.@.X.S A o.q.n.R.E.P.A.g.a.s.r.6./ @.n a a c i W $.q.$.q.e.6.$.n.V.=.#.7.u.r.w.w.e.P.W. X X{.R.B.M.L.R.^.^.{.!.Q.~.|.",
"b.b.g.e.0.w.w.0.@.X.o.*.g.M.B.N.N.g.s.g.e.=.X.R x h R a.Z Z +.*.q.&.W ~ h.'.T.u.+.+.*.n.P.n.n.n.N.K.Q.W.U.R.R.Q.^.{.@X@X@X|.T.T.",
"g.g.e.w.e.r.g.b.q.o.S ! 6.s.N.A.B.N.a.6.7.&.+.m Z $.a.d.q.~ N f p 6 > 2 j.:X.XS.N.a.a.s.N.I.T.U.Y.E.~.~.~.Q.~.~.OX@X@X@X X XW.G.",
"g.g.r.y.y.M.P.K.b.q.$.+.&.r.g.N.m.B.s.g.w.+.X.! 6.$.h.W.'.a.3 * ; ; ; 7.:X2X=X].'.]..X.X.XR.S.R.B.R.W.R.R.R.{. X@X@X$X$X X!.Y.V.",
"g.s.r.r.h.L.U.P.N.l.a.q.r.l.g.g.g.M.B.n.+.! $.w.~ X.h.].%X;X].q.> ; i #X2X:XoX].W.|.].[.+X$X].T.R.B.N.Y.Q.^.{.@X{.OX$X>X-X|.l.m.",
"g.g.g.f.g.S.Y.P.P.n.l.r.g.S.E.T.S.Y.n.r.$.+.0.=.R { *.d.%X<X5X5Xn.> ! <X2X2X=X%X#X.X=X>X;X>X-X#X X X|.{.{.$X*X*X*X@X$X@X#X XS.V.",
"M.M.M.b.g.N.B.U.P.S.n.e.s.S.R.Y.T.B.b.q.q.s.s.$.s.P.Y.S.'.%X4X2X;X&.f.@X=X-X;XXX.XXX.X X#XXX*X#X#X*X3X,X>X*X>X<X,X$X$X@X{.!.Q.n.",
"M.M.N.B.N.M.g.b.N.s.s.q.q.s.b.S.Y.T.G.m.m.a.g.W.E.R.S.T.|.;X<X;X&XL.w.~..XXXoXoX%XXX#X*X*X*X*X#X#X#XXX>X,X>X>X>X>X>X$X$X$X!.D.a.",
"N.K.U.U.K.B.N.m.m.n.s.q.;.q.s.P.W.T.G.C.V.Y.].E.A.]. X.X.XXX#X-XOX5.z ) b.T.Y.G.G.B.m.Y.{.XXoX X XXX*X*X>X>X,X>X$X@X$X$X+X~.V.s.",
"U.R.R.R.U.N.B.B.m.M.g.s.s.n.n.m.C.G.G.W.'.XXW.|.%X.X'..X|.XX|.].y.W W X.4.w.r.q.q.;.r.Y.XX*XXX|. X.X X*X,X>X$X*X-X$X$X$X#X].d.d.",
"J.K.B.B.L.K.B.b.b.b.n.n.N.N.m.S.B.B.G.W..X X|.|..X.XXX|.W.G.S.N.L.Q.!.[. XT.B.m.B.m.Y.{.#X#XXX|.|.XX#X X*X3X,X*X*X>X,X*X#X~.l.c.",
"g.r.r.M.K.B.B.b.n.N.N.B.m.m.m.n.G.m.G.Y.G.W.XX%X|.T.T.n.d.l.N.W. X#X&X&X#X{.{.W.Y.B.Y.|.#X{.{.{.XXXX-X#X.X*X>X,X>X,X<X-X#XXXC.z.",
"e.e.q.s.B.K.B.B.K.Y.S.S.P.S.S.R.T.G.G.C.G.{..XW.G.T.S.l.m.Y.'.|.+X%X$X#X=XXX{.K.l.b.N.Y.{.G.M.W. XXX*X*X@X#X*X,X<X,X>X*X-XXXG.d.",
"w.e.y.K.R.Y.P.R.Y.B.N.P.Y.S.E.T.B.Y.m.C.{.W.B.S.Y.W.G.G.T.'.|.'..X&X+X+XXX|.{.m.b.l.b.b.r.l.r.b.{. X X*X$X#X*X,X>X1X*X*X*XXXY.i.",
"r.y.b.b.b.B.R.R.K.M.m.Y.E.Y.E.m.T.G.B.{.T.m.m.m.T.T.G.G.H.W.T.{..X.X X~. X|.W.G.R.{.m.m.m.m.r.l.B.|..X@X*X*X*X>X,X*X$X>X$XXXT.l.",
"r.y.0.@.0.y.m.B.b.e.N.W.Y.L.N.Y.Y.U.{.T.m.l.n.m.Y.G.G.B.G.W.H.{.].[.~.|.|.~.{.{.{.{.{.{.K.b.b.m.Y.{.@X@X*X*X3X3X>X@X>X>X*X+XG.z.",
"r.;.@.@.w.r.r.r.q.g.N.b.b.M.B.W.Y.Y.Y.m.s.l.s.B.m.B.m.m.m.Y.B.R.E.T.E.R.{.{..X#X$X$X@XXXY.b.m.B.E.{.XX*X,X3X3X>X$X$X>X$X>XXXZ.S.",
"*.@.X.@.@.0.0.0.0.0.*.+.0.j.B.B.M.m.b.s.l.l.l.m.m.l.s.m.m.B.m.m.E.E.~.|.@X#X-X*X3X>X@XXX{.B.E.{.|.XX*X;X3X3X3X>X$X>X*X$X#X|.m.z.",
"@.@.r.0.0.*.@.@.*.@.X.@.b.y.b.b.b.s.l.l.m.m.m.B.N.B.m.m.m.m.G.{.XXXX#X=X,X,X,X>X-X3X,X@X{.T.W.|.#X,X3X3X3X,X-X-X,X-X*X*X#XW.Z.k.",
"0.e.r.r.e.0.e.;.;.e.r.r.r.r.K.B.b.b.b.B.B.B.G.Y.Y.Y.G.m.G.{.XXXX@X*X>X*X-X-X,X*X*X#XXXXX{.|.|.%X3X3X3X3X3X>X>X>X3X,X*X$X@XW.s.} ",
"r.e.r.b.b.y.b.b.b.b.b.b.r.b.Q.B.B.Y.Y.G.T.T.G.H.T.{.{.|.XX*X>X*X>X,X>X*X>X>X,X>X*X*X-X,XoX=X=X:X4X4X3X3X3X-X,X3X3X*X*X*X$XT.$.k.",
"{.R.m.K.K.b.M.M.b.B.M.K.b.B.{.Y.E.E.~.~.|.~.T.T.{.XXXXoX=X>X3X3X,X3X3X3X3X3X3X3X3X3X,X,X*X-X;X<X4X4X4X3X,X>X3X3X3X>X>X*X@XT.k.l."
};
