/* XPM */
static char *_8724_979fe3c6840e18eb6ef9cb778436d5647b36466fbb7e5e2c21ae35353a8071a0[] = {
/* columns rows colors chars-per-pixel */
"64 64 157 2 ",
"   c #000000",
".  c #080200",
"X  c #130300",
"o  c #1A0500",
"O  c #181517",
"+  c #220600",
"@  c #330A00",
"#  c #390D00",
"$  c #2F2F2F",
"%  c #32302E",
"&  c #3B302C",
"*  c #3E3E3E",
"=  c #451000",
"-  c #4C1200",
";  c #581700",
":  c #5B1800",
">  c #621900",
",  c #6F1F00",
"<  c #513D1E",
"1  c #593F1D",
"2  c #742100",
"3  c #6C391B",
"4  c #6B3E18",
"5  c #78351B",
"6  c #4A3028",
"7  c #533226",
"8  c #5B3324",
"9  c #4F3E37",
"0  c #583E35",
"q  c #643322",
"w  c #713A21",
"e  c #733F2C",
"r  c #623E31",
"t  c #683E30",
"y  c #5B492D",
"u  c #5D463F",
"i  c #724F25",
"p  c #7C4928",
"a  c #665029",
"s  c #6B5028",
"d  c #795023",
"f  c #6F4537",
"g  c #7B4531",
"h  c #474747",
"j  c #534742",
"k  c #584640",
"l  c #555555",
"z  c #595552",
"x  c #5F5957",
"c  c #595959",
"v  c #69564F",
"b  c #795041",
"n  c #635855",
"m  c #79655E",
"M  c #656263",
"N  c #6A6A6A",
"B  c #7F6861",
"V  c #767676",
"C  c #7A7573",
"Z  c #832500",
"A  c #8F2A00",
"S  c #962D00",
"D  c #992D00",
"F  c #953C0E",
"G  c #9B3C0C",
"H  c #823717",
"J  c #823F11",
"K  c #8B3814",
"L  c #8D3F1F",
"P  c #993F19",
"I  c #A53100",
"U  c #AB3D06",
"Y  c #B43700",
"T  c #B43E03",
"R  c #BD3A00",
"E  c #843E23",
"W  c #883F22",
"Q  c #C33D00",
"!  c #CD3F00",
"~  c #9A5503",
"^  c #9B590F",
"/  c #824C1F",
"(  c #8B4B1B",
")  c #984116",
"_  c #9A4914",
"`  c #9F431C",
"'  c #9A5B12",
"]  c #A74004",
"[  c #A4470F",
"{  c #AD430C",
"}  c #B54505",
"|  c #BD4102",
" . c #B24D00",
".. c #B84A00",
"X. c #B44109",
"o. c #BB430A",
"O. c #A55302",
"+. c #AB5302",
"@. c #BD5B08",
"#. c #AB4111",
"$. c #AE481D",
"%. c #BB4510",
"&. c #A15017",
"*. c #AC6E17",
"=. c #B06B15",
"-. c #81442D",
";. c #9C4C2D",
":. c #944D32",
">. c #85503D",
",. c #8A503C",
"<. c #A34C26",
"1. c #A14B29",
"2. c #B34F26",
"3. c #BD5123",
"4. c #B4542E",
"5. c #AF5736",
"6. c #C44300",
"7. c #CD4200",
"8. c #C64E01",
"9. c #CB4C00",
"0. c #C74608",
"q. c #C7480C",
"w. c #D14100",
"e. c #C15604",
"r. c #CB5C06",
"t. c #C44A13",
"y. c #C7501B",
"u. c #E85700",
"i. c #F15400",
"p. c #E75C12",
"a. c #C9640C",
"s. c #C4791B",
"d. c #885A49",
"f. c #985942",
"g. c #925B48",
"h. c #895E50",
"j. c #9E614A",
"k. c #91685A",
"l. c #A06147",
"z. c #AD6146",
"x. c #A7664F",
"c. c #B66649",
"v. c #8A6D64",
"b. c #82716C",
"n. c #9A7164",
"m. c #A57D70",
"M. c #BF8C27",
"N. c #BE8D28",
"B. c #C18121",
"V. c #D08F2C",
"C. c #CFAA3D",
"Z. c #F4CE00",
"A. c #FFFB00",
"S. c gray51",
"D. c #958F8D",
"F. c gray57",
"G. c #9D9D9D",
/* pixels */
"* * * * * * * * * * * * * * * * * * * * * * * * * * * * * * * * * * * * * * * * * * * * * * * * * * * * * * * * * * * * * * * * ",
"* * * * * * * * * * $ F.C.C.C.C.C.C.C.C.V F.C.C.C.C.F.    c V N.C.C.C.C.C.C.C.N.*.c *   $ $ $ $ $ $ $ $ $ $ * * * * * * * * * * ",
"$ $ $ $ $ $ $ $   * $ F.S.C.C.C.C.C.C.N S.S.F.C.C.C.c     c F.N c N.c c ~ ~ ~ ~ h *       c ~ ~ ~ ~ a a h c h $ $ $ $ $ $ $ $ $ ",
"c c c c c c c c   * $ C.S.*.*.*.*.*.*.N S.F.F.~ ~ *.h     V F.V N c N N < a a a c *       ~ N.C.C.N.N.*.F.S.V ~ ~ ~ a a c c c c ",
"F.*.*.*.F.V h c   * $ C.V ~ ~ a a a ~ c V V N a a ~ *     c F.V c c V V c a < a c *       ~ C.*.~ ~ ~ S.F.N.C.C.C.N.N.N.*.F.F.F.",
"c c *.*.*.< h c   $ $ C.N ~ a a h c a V N ~ c h a a *     $ V *.V V c V c $ c < * *       ~ C.~ ~ c V c N.V ~ ~ ~ ~ ~ *.*.V c V ",
"V F.< *.~ ~ < *   $ $ C.N ~ a a c N a N N ~ c N h a $     $ h *.c *.c c N c N < $       < a N.~ c V N.N.*.c a ~ ~ ~ a a V V *.V ",
"N F.S.~ < a < *     $ C.N c a a c V a c h a N V c a $ $   $ < a c *.V c c V V c $       a a N.~ V c N.*.~ N < ~ ~ a V a c N a V ",
"c S.c a < < h *     $ C.N V a a c V < N c N c c V a $ $ $ $ $ 7 < < $ $ $             $ ~ $ N.a c V ~ h ~ h N a ~ a c a N V V N ",
"V V S.< c N h *     $ N.N V ~ a c c N c c c c V c a h   $ $ $                       $ N.a $ ~ < c ~ < N ~ N N < a a c < N c N c ",
"N c N N N c $ $     $ N.N c ~ a c h c N V N V N V < *     $ $                     $ N.a $ < a $ ~ a c V ~ c c N a < c V c V c c ",
"c c c c c * $ $     $ a N V < a c h h V N c c h N c h     $ $ $ $ $ *.A.A.*.V A.A.C.a $ ~ < $ c < < h h < * * * < * h h h h h h ",
"h h h h * $         * $ N S.c < c N ~ c N V h c ~ N *       $ c *.A.A.C.N.c S.S.C.N.N.~ $ $ c c h h * $ $ $ * * * * * * * * * * ",
"$ $ $ * *           9 q k.n.h.j h ~ a c c N N N a h *     X - k.Z.V.O.*.*.c c V ~ c $             7 q q q 8 $ $ $ $ $ $ $ $ $ $ ",
"                    r w.w.w.w.f.V a a h c h c V a * *     2 w.w.w.w.0.*.*.c c c ~ * < $           R w.w.w.S                     ",
"                    * ! w.w.w.4.N a a c V c V N < * c $   I w.w.w.w.w.B *.*.N c a * $ a $ $ * * 0 w.w.w.w.5 $ $ $ $ $ $ $ $ $ $ ",
"N N N N ~ ~ ~ a N     #.w.w.w.6.N a < a h c N c h h * * . ! w.w.w.w.w.j.*.~ c N < *   7 ~ *.*.*.( w.w.w.w.m N N N N N N N N N N ",
"F.F.F.N.N.N.~ < c     W w.w.w.w.v a h a a N V N c c c $ - w.w.w.w.w.w.2.~ y c V c *       *.*.~ { w.w.w.t.M.N.*.F.C.C.C.C.C.C.F.",
"V N c *.~ ~ ~ < S.    y w.w.w.w.,.a h 7 < c N c * c * $ Z w.w.w.w.w.w.7.< < c * * *       ~ a ~ 6.w.w.w.a.M.*.c ~ *.*.*.*.*.a h ",
"V c V *.~ ~ ~ < c     % 7.w.w.w.<.a h $ $ * c * c * $   Y w.w.7.o.w.w.w.7 $ $ % $       h ~ a i w.w.w.w.s.*.c N ~ ~ ~ ~ ~ ~ a h ",
"V *.N *.~ ~ ~ < *     $ #.w.w.w.| $ $ $ $ $           o w.w.w.$.;.w.w.w.2               h ~ a J w.w.w.w.=.h c V ~ ~ ~ ~ ~ ~ a h ",
"V ~ V *.~ ~ ~ < *     $ E w.w.w.7.X                   : w.w.w.> t w.w.w.I               c ~ a F w.w.w.%.*.c V N V h ~ a a ~ < h ",
"c ~ h h ~ a ~ < *       0 w.w.w.w.-             $ $ $ U w.w.w.v c 7.w.w.7.*.*.h *     h F.~ s | w.w.w.;.*.c c N l ~ ~ $ a ~ < h ",
"c a h h ~ < < h %       c 7.w.w.w.a.*.V c h   $ h ~ N.9.w.w.t.N.*.6.w.w.w.+.~ ~ a     h F.~ i w.w.w.w.f ~ c N c V ~ ~ $ h ~ < h ",
"c N V V ~ < c h $       *.r.7.w.w.9.~ N N   * $ ~ N.B.w.w.w.e.~ a _ w.w.w.[ ~ a <     c F.~ ( w.w.w.7.s ~ c V N ~ ~ < $ V < $ h ",
"N V N N < N c *         V.+.7.7.w.7.s < V   * $ ~ N.@.w.w.w.( a s i w.w.w.| < < $     c G.~ [ w.w.w.U ~ $ c h a a a < $ c h h h ",
"h h h h h * $           N.O.w.w.w.w./ < h   $ $ ~ N.8.w.w.7.j a < a 6.w.w.w.j < $     c G.~ 6.w.w.w.H $   $ $ $ $ $ $ $ $ * * * ",
"* $ $                   B.~ 6.w.w.w._ < h   $ $ ~ N.w.w.w.} h a h a { w.w.7.g < $     c G.~ w.w.w.w.@                         $ ",
"            $ $ $ $ $ $ N.~ ] w.w.w.} < h     $ ~ s.w.w.w.F h a N a ( w.w.w.` $ $     ~ G.+.w.w.w.Q   7       <                 ",
"$ h h c c N c c c c $   N.~ -.w.w.w.7.< h $   $ a e.w.w.w.4 h a ~ a i w.w.w.6.$ $     ~ G...w.w.w.S < < ~ ^ ~ * < +.9.1 $       ",
"h c S.*.*.*.*.*.~ V c   *.a u w.w.w.w.4 h $   $ a 8.w.w.7.< h a a a < o.w.w.7.6 $   < ~ F.7.w.w.9.> $ < ~ ' ~ *.N.u.i.i.i.w $ * ",
"h S.*.~ a a a a a V $   a $ h q.w.w.w.) h $   $ j w.w.w.{ h h < a a < ;.w.w.w.5 $ %   ~ D.7.w.w.w.o $ h ~ y ~ ~ *.i.i.i.i.i.# * ",
"h *.~ a a < < a a $ V   G.N V 5.w.w.w.U h $     e w.w.w.,.h c h a a h b ! w.w.U       ~ m.w.w.w.|   $ V i.p.i.i.i.i.i.i.i.i.  * ",
"h *.~ a < V c a a $ c   G.N l g.w.w.w.6.h $     P w.w.w.i V a c < a h z w.w.! 0.    < c z.w.w.w.P   $ F.i.p.i.i.i.i.P i.i.<.  $ ",
"h *.~ a < N V *.a $ *   F.V V b.w.w.w.w.u $     6.! w.y.a a < N c a h N 6.w.w.w.@ $ ~ c 3.w.w.w.3   $ S.V M ~ < * a i.u.l.h   $ ",
"h *.~ a < N *.~ a $ *   F.F.c N 6.w.w.w.g $   + w.w.w.c.a < h N c < h *. .w.w.w., $ $ x w.w.w.7.&   $ F.V M ~ < h &.i.d.V *   $ ",
"h a ~ a a a a a a $ *   F.F.c N 5.w.w.w.` $ $ > w.w.w.m.< c V N V h a ~ 4 w.w.w.I   $ f w.w.w.T $   $ V V M ~ a c d w c N *     ",
"h F.a < a 7 a a a $ *   S.F.c V >.! w.w.o.$ $ D w.w.w.D.V c h a < $ $ $ $ Q w.w.! . $ L w.w.w.K $ $ $ c * h * * * * * * * *     ",
"h F.S.N a V a a a $ *   N F.N c b.! w.w.w.9 $ Q w.w.U c c a $ $ $ $   $ 7 G w.w.w.= $ { w.w.w.q 7 * *     O                     ",
"h F.S.c s N a < a $ *   h F.~ N V t.w.w.w.e 8 w.w.w.H             <     < J w.w.w.K $ 7.w.w.7.% % a < $ $ *                     ",
"h F.S.V < N a % a $ *   * G.a V N 1.w.w.w.) H w.w.w.7 $           a $ $ $ i w.w.w.| / w.w.w.#.h h < a ~ ~ ~ h h h h h h h h   * ",
"h F.S.c N V a < a $ *   $ G.s c ~ h.w.w.w.X.U w.7.Q h h h h h h h *.a h h $ | w.w.w.[ w.w.w.x.F.F.N.N.N.N.N.N.N.N.N.*.a c h   * ",
"h S.S.V V N a < a $     $ G.< N s n 9.w.w.w.w.w.w.A *.F.F.F.F.F.N.N.N.~ F.F.a.w.w.w.w.w.w.w.B.N.N.N.N.N.N.N.N.N.N.N.*.~ a h   $ ",
"h S.S.~ V c a < $ *     $ G.c V 7 N 6.w.w.w.w.w.w.; *.C.C.C.C.C.C.C.N.*.V G.m.w.w.w.w.w.w.7.*.*.*.*.*.*.*.*.*.*.*.~ a a h *   $ ",
"h F.S.~ c V a < c *     $ F.V V $ V [ ! w.w.w.w.w.i ~ *.N.*.~ ~ ~ ~ ~ ~ a c C 9.w.w.w.w.w.] < < a ~ ~ ~ ~ ~ ~ ~ ~ a * * c *     ",
"$ F.c ~ V c < $ c *     $ S.c c V x ( ! w.w.w.w.T < $ N *.h ~ a ~ ~ a ~ a h V 3.w.w.w.w.! p h c a ~ ~ ~ a ~ h ~ a < * c c *     ",
"$ S.V ~ a c * * *       $ S.V c c V y ! w.w.w.w.[ $ $ V N N ~ < ~ ~ < ~ a h V :.w.w.w.w.w.k c N c a ~ ~ < ~ c ~ < < h N c *     ",
"$ h h a < * * * *       $ N N V c c * X.w.w.w.w.8 <   S.V V ~ < ~ ~ < ~ < h ~ v.w.w.w.w.R l c N V c ~ a < ~ ~ ~ < * c N c *     ",
"$     < $ * * * *     $ $ h h h h h h h * *     $ $ < V F.S.~ < ~ ~ < a $ h ~ < c N ~ < * c *.*.N V ~ 7 h a < ~ < * h h c *     ",
"* * * a $             $                           $ $ c S.S.~ < a a < $ $ h < < l N ~ < h V a < h N ~ < c < h a < h h h c *     ",
"$ $ $ ~ < < $         $                               c N N a h $ $ h h h h V V c c a < h c < < c V a < N N V < $ h c N c *     ",
"$ h V *.*.*.~ c h $ $ *                               * $   $     $ $ $ * c c h h h < $ h h h h h h < $ h h h h h h h h h *     ",
"$ V *.N.N.N.*.*.*.*.V c c h * $                     $ * $ $               $ * * * * $ $ * * * * * * $ $ * * * * * * * * * $     ",
"$ V *.N.~ c ~ ~ ~ ~ *.*.N.N.N.N.N.N.N.N.N.*.*.h h c h h * * $ $ $ $ $         $ $ $ $ $ $ $ $ $ $ $ $ $ $ $ $ $ $ $ $ $ $     $ ",
"$ V *.N.~ c *.~ ~ a c ~ ~ ~ ~ ~ ~ ~ ~ ~ ~ ~ ~ ~ a N F.V V V V V c $ * $           < $               $ $                     $ $ ",
"$ V *.*.~ c *.~ ~ a c h *.~ ~ c ~ ~ ~ < a ~ ~ ~ a c F.F.F.F.S.F.h   $ * $ $ $   a <                 < $                 $ $ $ * ",
"$ V S.*.~ c *.c ~ a c N *.~ ~ ~ ~ *.~ a h *.~ ~ a c V N V V V h h     * $ a *.*.*.h $ $ $ * * * < *.~ a < < $ $ $ $ $ $ * * * * ",
"$ V F.c ~ c h h ~ < c V *.~ a ~ N *.~ a N *.< ~ a c V N N V V h *     $ $ *.a a a c F.F.S.* * ~ N.N.N.N.N.N.~ < c F.S.N h $ $ * ",
"$ V c h h h h h a $ h h a $ h h h a $ h h $ a a < h h h h h h * $       $ c a a < c S.S.S.h * N.~ a ~ ~ ~ a a ~ < c c V F.N   * ",
"$ c h $ $ $ $ $ $ $ % $ $ $ $ $ $ $ $ $ $ $ $ $ $ $ $ $ $ $ $ $ $       $ S.a < c N S.N c h $ N.a c ~ a c a c a < c V c V *   * ",
"$                               $ $ $ $ $ $ $ $ $                       $   $ $ * * h h h h $ F.V N ~ a c c c a < c V c c *   * ",
"* $                                 $ $     $ $                           * $ $               * * * < $ * * * < $ * * * * *   * ",
"* * * * $ $ $ $ $ $ $ $             $ $     $ $                           * * * $ $           * *   $ $       $ $             * ",
"h h h h h h h h h h h h h h h h h h h h h h h h h h h h h h h h h h h h h h h h h h h h h h h h h h h h h h h h h h h h h h h h "
};
