/* XPM */
static char *_2438_d2f427a3a77aeedebe91eb89853306d4555d1a2b621eb5ab3688a2032b17503e[] = {
/* columns rows colors chars-per-pixel */
"64 64 105 2 ",
"   c #2F2F2F",
".  c #3E3E3E",
"X  c #513D1E",
"o  c #68341F",
"O  c #753E15",
"+  c #7C3F13",
"@  c #783D14",
"#  c #79351B",
"$  c #5F3322",
"%  c #643322",
"&  c #713F2C",
"*  c #665029",
"=  c #764432",
"-  c #724435",
";  c gray28",
":  c #4D4745",
">  c #524744",
",  c #5A4640",
"<  c gray35",
"1  c #6A6A6A",
"2  c #767676",
"3  c #9A3F09",
"4  c #8E3813",
"5  c #933911",
"6  c #BB3E01",
"7  c #9A5503",
"8  c #844C1E",
"9  c #8A4C1C",
"0  c #954916",
"q  c #9B441F",
"w  c #B84A00",
"e  c #BA4A00",
"r  c #A15402",
"t  c #A85102",
"y  c #A95102",
"u  c #AC5002",
"i  c #BC5C08",
"p  c #B6640E",
"a  c #B8620C",
"s  c #AC6E17",
"d  c #A24C29",
"f  c #BB542B",
"g  c #A85332",
"h  c #AD5938",
"j  c #AA5A3C",
"k  c #B15E3E",
"l  c #C54100",
"z  c #D14100",
"x  c #C25503",
"c  c #C15603",
"v  c #C15605",
"b  c #CB5B06",
"n  c #D25302",
"m  c #C9640B",
"M  c #C9650D",
"N  c #C9660D",
"B  c #D96300",
"V  c #C4781B",
"C  c #C47A1D",
"Z  c #D07118",
"A  c #D0741B",
"S  c #D07C1F",
"D  c #CD5521",
"F  c #D45E2C",
"G  c #D76130",
"H  c #825241",
"J  c #8D5E4E",
"K  c #895E50",
"L  c #946757",
"P  c #9C6F5F",
"I  c #B76647",
"U  c #B4694F",
"Y  c #BC6B4D",
"T  c #9A7164",
"R  c #987366",
"E  c #A77B6C",
"W  c #A37F72",
"Q  c #A57D70",
"!  c #C6775A",
"~  c #C57A5F",
"^  c #BE8D28",
"/  c #C18524",
"(  c #D08F2C",
")  c #CFAA3D",
"_  c #F4CE1F",
"`  c #FFFB00",
"'  c #FFFB2C",
"]  c #AE8374",
"[  c #AC8578",
"{  c #FFFC58",
"}  c gray51",
"|  c gray57",
" . c #9D9D9D",
".. c #BF9688",
"X. c #BF988D",
"o. c #A19794",
"O. c gray66",
"+. c #B6B6B6",
"@. c #DAB5AA",
"#. c #DFBBAF",
"$. c #C0C0C0",
"%. c #CBCBCB",
"&. c gray86",
"*. c #E2E2E2",
"=. c gray95",
/* pixels */
". . . . . . . . . . . . . . . . . . . . . . . . . . . . . . . . . . . . . . . . . . . . . . . . . . . . . . . . . . . . . . . . ",
"1 1 1 1 1 1 1 1 1 1 < *.{ { { { { { { { %.*.{ { { { *.  ;  .+.%.{ { { { { { { { )  .1   < < < < < < < < < < 1 1 1 1 1 1 1 1 1 1 ",
"1 1 1 1 1 1 1 1 1 1 < *.&.` ` ` ` ` ` +.%.&.%.` ` `  .  ;  .%.$. .) | | ^ ^ ^ ^ | 1 ;   ; } ^ ^ ^ ^ s s | } 2 < < < < < < < < < ",
" . . . . . . . .  1 < { &.) ) ) ) ) ) +.&.%.%.^ ^ ) 2   ; +.*.+. .|  .| 7 s s s | 1 ;   ; ^ ) ` ` ) ) ) %.$.+.^ ^ ^ s s  . . . .",
"&.) ) ) $.+. . .  1 < { &.^ ^ s s s ^ +.+.+.O.s s ^ 1   ;  .%. . . .+.+.2 s 7 s } 1 ;   ; ^ ` ) ^ ^ ^ | *.) ` ` ` ) ) ) ) | &.&.",
"+.+.) ) ) 7 | }   1 < { %.^ s s } | s +.O.^  .} s s 1   ; < +.) +.+. . .| * 2 7 1 1 ;   ; ^ ` ^ ^ | |  .) | ^ ^ ^ ^ ^ ^ ) 2  .O.",
"$.O.7 ) ^ ^ 7 }   < < { &.^ s s | +.s O.O.^  .O.} s *   ; < | )  .)  .+.+.} 2 7 ; ; ;   7 s ) ^ | | ) ) ) | s ^ ^ ^ s s 2 2 ) | ",
"$.$.| ^ 7 s 7 1   ; < { &. .s s | +.s  .| s O.+. .s * X ; < 7 s +.) +. . . .+.} ; ; ; . s s ) ^ |  .) ) ^ | 7 ^ ^ s 2 s 2 | s 2 ",
"O.+.+.s 7 7 < <   . < { %.+.s s | +.7 O. .O. . .+.s * X X < * 7 7 7 * ; ; ; ; ; ; ;   * ^ * ) s | +.^ | ^ | | s ^ s 2 s 2 +.| 2 ",
" . . .7 } 1 < <   . < ) =.+.^ s |  .O. . . . .+. .s 1 . X * < ; ; ; ; ; ; ; ; ;     * ) s * ^ 7  .^ 7 O.^ | O.7 s s 2 7 2  .+. .",
"} } } } 1 < ; ;   . < ) *. .^ s | |  . .+. .+. .+.7 1 .   X * ; . .           . . * ) s * 7 s * ^ s  .+.^ |  .} s 7 2 2 2 2 2 2 ",
"1 1 < < <         . < s *.+.7 s | | | +.O. . .|  .} 2 ;   X X * X < } ' ' +.+.' ' ) s * ^ 7 *  .7 7 2 2 7 1 1 1 7 < < < < < < < ",
"          . . . . ; 1 * *.&. .7  .O.^ o.[ X.Q [ C [ K - % - @ T X._ _ ( ( #.@.@.( ( ( / * *  .} 2 2 1 < * < ; ; ; ; ; . . . . . ",
". . . . . . . . . ; 1 < +.&. .+. .^ s R z z z z z z z z z z z z z z z z z z z z z z z # ; ; ; ; ; ; ; ; ; ; ; . .               ",
"; ; ; ; ; ; ; ; ; ; 1 <  .&.+. .+.s s R z z z z z z z z z z z z z z z z z z z z z z z 0 ; . . . . . . . . . . ; ; ; ; ; ; ; ; ; ",
"1 < ; ; ; ; ; ; ; ; 1 < } %. .+.O.s s R z z z z z z z z z z z z z z z z z z z z z z z i * < 1 1 1 1   < < < < < < < < < < < < < ",
"O.O.O.O.^ ^ ^ s O..   1 < %.%.s  .s 7 p z z z z f h g g 5 5 d ! Z x I ! Z m k Y e g q t ^ ) ) ) s 1 < 1 | O.O.O.O.O.O.O.O.O.O.O.",
"&.&.&.) ) ) ^ 7 } ;   1 <  .%.7 2 s 2 p z z z z P  .} <     < +.) s |  .^ 7 2 +. .1 ;   ; ) ) ^ s   < | %.) ) ) *.` ` ` ` ` ` *.",
"+.O. .) ^ ^ ^ 7 } ;   1 < } O.2 2 s 2 y z z z z J } 1 <     < +.s |  .} 7 7 2 1 1 1 ;   ; ^ s ^ s   < O.) ) ) | ^ ^ ^ ^ ^ ^ s } ",
"+. .+.) ^ ^ ^ 7 } ;   < 1 < O.O.} s 2 8 z z z z P 1 < .     . +. .}  .} * ; ; ; ; ; ;   2 ^ s s 1   < O.) ) | O.^ ^ ^ ^ ^ ^ s } ",
"+.)  .) ^ ^ ^ 7 1 ;   < 1 < 2 1 1 X X O z z z z o           .  .} ; ; ;                 2 ^ s 7 1   < O.) |  .O.^ ^ ^ ^ ^ ^ s 1 ",
"+.^ +.) ^ ^ ^ 7 1 ;   < 1 < . . . .   $ z z z z o           . ; 1 ;         . . . . . .  .^ s * 1   <  .) | +.O.+.O.^ s s ^ 7 1 ",
" .^ | | ^ s ^ 7 1 ;   ; 1 1 < ;       $ z z z z H < < < < < <  . .O.) ) ) ) ) | 1 . ; 2 %.^ s 7 2   <  .) |  .O. .^ ^ * s ^ 7 1 ",
" .s | | ^ 7 7 2 < ;   ;  .) ) ) ) ) ) W z z z z L ^ ) ) ) ) &.) ) ^ ) ) ) ^ ^ ^ s   ; | *.^ s s }   < | ^ | O. .+.^ ^ * | ^ 7 1 ",
" . .+.+.^ 7  .2 < ;   ; ) ) ) ) ) ) ) R z z z z V ) ) } ) ^ ) ^ s s ^ ^ ^ s ^ s 7   ;  .*.^ s 7 s   < s ^ | +.O.^ ^ 7 * +.7 * 1 ",
"O.+. . .7  .} 1 ; ;   ; ) ^ s s s s s y z z z z V ) )  .^ s s s s s s s s 7 7 7 *   ;  .=.^ s * 7   < ^ * } 2 s s s 7 * } } 1 1 ",
"2 2 2 2 2 1 < ; ; ;   ; ) s s s s s s y z z z z V ) ) ) ^ 7 | s 7 s s s s 7 1 7 *   ;  .=.^ s X 7   < * ; ; < * * * * < < 1 1 1 ",
"1 < < ; ; ;         . ; ) s s s s s s y z z z z b A A v N w ~ v j v v w v w j w 3 4 >  .=.^ s * *   7 ;                   ; ; < ",
"            . . . < < < ) s 7 2 s s s y z z z z z z z z z z z z z z z z z z z z z z , ^ =.^ s * 1   7 7 ; ; ; ; ; ;             ",
"< 2 2 }  .O. . . . .<   ) s 2 O.s s s y z z z z z z z z z z z z z z z z z z z z z z , ^ =.^ s * 1   7 ^ ^ s 7 1 7 7 7 7 X ; ; ; ",
"2  .$.) ) ) ) ) ) +.}   ) s 2  .7 s s y z z z z z z z z z z z z z z z z z z z z z z r ^ *.^ s * 1   < 7 ^ ^ ^ ) ) s s < < < < 1 ",
"2 $.) ) s s s s s +.<   s * 2 +.| s s y z z z z U a u ..a ] E u a a u P a u P 9 + 9 : ^ *.^ s * 1   < } ^ 7 ^ ^ ^ ) ) ) s O.; 1 ",
"2 ) ^ s s 7 7 s s * }   =.O.+.O.+.s s y z z z z J 7 =.+.+.O. .} s s } | s 7 } 1 ; . ; ^ *.^ s * 1   < O.} } ^ ^ s s 7 7 7 | ; 1 ",
"2 ) ^ s 7 2 } s s * }   =.O. .O.+.s s y z z z z J +.=.+.s +.s  .7 s | | s s ^ < . . 7  .&.7 s * 1   < *.+.+.^ 7 s s * 2 } 2 ; < ",
"2 ) ^ s 7 }  .) s * 1   *.+.+.+.O.s s 8 z z z z J  .=.%.s s 7  .} s  .+.^ s * <   * ^  .&.+.s 7 X   < &.+. .^ 7 2 s * 2 O.2 ; < ",
"2 ) ^ s 7 } ) ^ s * 1   *.%.| O.| s s 8 z z z z H } &.%.s 7 | O. .7 O.) ^ 7 * ;   * <  .&. .7 * X   < %.+.+.^ 7 } s * } +.1 ; < ",
"2 s ^ s s s s s s * 1   %.*. .O.+.7 s 8 z z z z H 1 $.*.7  .+. .+. .s ^ 7 7 * ;   ; < | +.| 7 X * ; < +.+. .^ s } s * } O.1 ; ; ",
"2 *.s 7 s 7 s s s * 1   $.*.| +. . .s 8 z z z z = 1  .%.+. .| s 7 * * * * * X ;   ; < 1 ; ; * * < * * } 1 < 1 1 1 1 1 1 1 1 ; ; ",
"2 *.$. .s +.s s s * 1   O.*.O.| +.+.s 8 z z z z = 1 <  . .s * * * *   X 7 * X     ; < 1 < 7 7 * 7 1 1                         ; ",
"2 *.$. .s O.s 7 s * 1   | *.^ O.+. .s 8 z z z z & < < ; . . .     7 . . 7 7 * X . ; < 1 7 7 * < * s 7 * < < ; ; ; ; ; ; ; ; ; ; ",
"2 *.$.+.7  .s * s * 1   1 =.s +. . .s 8 z z z z & < < < ; ; ; ; ; s < < X s s 7 7 7 s s 7 * | | | 7 s ^ ^ ^ | | | | | | | | ; 1 ",
"2 *.$. . .+.s 7 s * 1   < =.s  .^ | s 8 z z z z & ; 2 | | | | | | ) s | | * s ^ ) ^ s 7 +.$.$.%.%.) ) ) ) ) ) ) ) ) ) s %.| ; 1 ",
"2 &.$.+.+.O.s 7 s *   . < =.7  .s  .s 8 z z z z o ; ) %.%.%.%.%.) ) ) ^ %.%.) ) ) ) ) ) ) ) ) ) ) ) ) ) ) ) ) ) ) ) ) ) s 2 . < ",
"2 &.$.^ +. .s 7 * 1   . < =. .+.7 O.s 8 z z z z l 6 n B B B B B B B B B D G F n n n n S ) ) ) ) ) ) ) ) ) ) ) ) ) ^ s s | 1 . < ",
"2 %.$.^  .+.s 7  .1   ; < *.+.+.X +.s 8 z z z z z z z z z z z z z z z z z z z z z z z M s 7 7 7 s ^ ^ ^ ^ ^ ^ ^ ^ s } } } 1 . ; ",
"< %. .^ +. .7 * } 1   ; < &. . .+. .s 8 z z z z z z z z z z z z z z z z z z z z z z z M 7 } } } s ^ ^ ^ s ^ } ^ s 7 }  .} 1 . ; ",
"< $.+.^ s  .1 1 1   . ; < $.+. . .+.7 O z z z z z z z z z z z z z z z z z z z z z z z c 7 }  .O. .s ^ ^ 7 ^  .^ 7 7 | +.} 1 . ; ",
"< | | s 7 1 1 1 1   . ; < O.O.+. . . .} 2 1 ; X * 7 . $.*.&.^ 7 ^ ^ 7 ^ 7 } ^ +.7 } ^ 7 } |  . .+. .^ s 7 ^ ) ^ 7 2  .O.} 1   ; ",
"< ;   7 * 1 1 1 1   ; < < | 2 2 2 2 2 2 1 1 ;   X * 7 +.*.&.^ 7 ^ ^ 7 s * } ^ 7 | O.^ 7 }  .) )  .+.^ 7 } s 7 ^ 7 2 | | } 1   ; ",
"1 1 1 s *     .   . ; < ; ; ; ; ; ; ; ; ; ; ;     X X  .&.$.^ 7 s s 7 * * } 7 7 } O.^ 7 } +.s 7 }  .^ 7 } 7 | s 7 2 | | } 1   ; ",
"< < < ^ 7 7 < . . . ; < ; ;                         .  .O.} s } * * } } }  .+.} }  .s 7 }  .7 7 2 +.s 7 } | +.7 * 2  .O.} 1   ; ",
"< | +.) ) ) ^  .2 < < 1 ; ; . . . . . . . . . . . . ; 1 < ; * . . . . . 1 } } |  .| 7 * } | | 2 2 | 7 * 2 | | | 2 2 | | 2 1   ; ",
"< +.) ` ` ` ` ` ^ ^ +. .} 2 1 < ; ; ; ; ; ; ; ; ; ; < 1 < < ; ; ; ; ; ; . < 1 1 1 1 * * 1 1 1 1 1 1 * * 1 1 1 1 1 1 1 1 1   . ; ",
"< +.) ` )  .) ) ) ) ) ` ` ` ` ` ` ` ` ` ` ` ` | | } 2 2 1 1 < < < < < ; ; . . . . . X X . . . . . . X X                   . ; < ",
"< +.) ` )  .) ) ) s 2 ) ) ) ) ) ) ) ) ) ) ) ) ) s  .%.+.+.+.+.+. .< 1 < ; ; ; ; ; 7 * ; ; . . . . . * X . . . . . . . . ; ; < < ",
"< +.) ` )  .) ) ) s 2 | ) ) )  .) ) ) 7 s ) ) ) s | %.*.*.*.&.%.| ; < 1 < < < ; s 7 ; ; ; ; ; ; ; ; 7 * ; ; ; ; ; ; ; ; < < < 1 ",
"< +.&.` )  .) +.) s 2 O.) ) ) ) ) ) ) s | ) ) ) s | +. .+.+.+.| 2   ; 1 < s ) ) ) 2 < < < 1 1 1 7 ) ^ s 7 7 * < < < < < 1 1 1 1 ",
"< +.%.+.) | | | ) 7 2 +.) ) s )  .) ) s | ) 7 ) s | +. .+.+.+.2 1   ; < < ) s s s 2 *.*.$.1 1 ^ ) ) ) ) ) ) ^ 7 &.%.$.O.| < < 1 ",
"< +. .2 2 2 2 2 s * 2 2 s * 2 2 2 s * 2 2 * s s 7 2 2 2 2 2 2 1 1 ;   ; < 2 s s 7 2 $.$.$.2 1 ) ^ s ^ ^ ^ s s ^ 7 +. .+.*.O.  1 ",
"<  .2 ; ; ; ; ; * ; ; ; * ; ; ; ; * * * * * * * ; ; ; ; ; ; ; ; ; ;   . < $.s 7 2 O.2 O. .2 < ) s 2 ^ s 2 s 2 s 7  .+. .+.1   1 ",
"< ;                             X X X X X X X X X                     . < ; X * 1 2 2 2 2 2 < 2 2 O.^ s 2 2 | s 7 +.+. . .1   1 ",
"1 < ; ; ; . . . . . . . . . . . . . X X . . X X . . . . . . . . . . . . ; 1 X X ;           ; 1 1 1 7 * 1 1 1 7 * 1 1 1 1 1   1 ",
"1 1 1 1 < < < < < < < < ; ; ; ; ; ; * * ; ; * * ; ; ; ; ; ; ; ; ; ; ; ; ; 1 1 1 1 ; ; ; ; ; ; 1 1   X X       X X             1 ",
"; ; ; ; ; ; ; ; ; ; ; ; ; ; ; ; ; ; ; ; ; ; ; ; ; ; ; ; ; ; ; ; ; ; ; ; ; ; ; ; ; ; ; ; ; ; ; ; ; ; ; ; ; ; ; ; ; ; ; ; ; ; ; ; "
};
