/* XPM */
static char *_167_d254d9fdd3027a8f5d0430f6155fee2d601814e0df7531d9ab28de036f19c6c0[] = {
/* columns rows colors chars-per-pixel */
"64 64 126 2 ",
"   c black",
".  c #020100",
"X  c #030100",
"o  c #100300",
"O  c #2F2F2F",
"+  c #322F2D",
"@  c #31302F",
"#  c #3F302B",
"$  c #3A302C",
"%  c #3E3E3E",
"&  c #471000",
"*  c #4C1200",
"=  c #4E1300",
"-  c #4F1300",
";  c #513D1E",
":  c #533F1E",
">  c #5F3F1B",
",  c #6C341E",
"<  c #623E19",
"1  c #7C3F13",
"2  c #783D14",
"3  c #533225",
"4  c #5F3322",
"5  c #4D3E39",
"6  c #643322",
"7  c #713D2B",
"8  c #5C463F",
"9  c #714F25",
"0  c #665029",
"q  c #6B5028",
"w  c #68453A",
"e  c #764432",
"r  c #724435",
"t  c gray28",
"y  c #4B4746",
"u  c #4F4744",
"i  c #494847",
"p  c #584741",
"a  c gray35",
"s  c #5A5958",
"d  c #5A5A59",
"f  c #775347",
"g  c #7E5243",
"h  c #7A5245",
"j  c #71554C",
"k  c #605856",
"l  c #6B6A69",
"z  c #6A6A6A",
"x  c gray43",
"c  c #736865",
"v  c #777675",
"b  c #767676",
"n  c #932B00",
"m  c #9B3F09",
"M  c #843717",
"N  c #B03500",
"B  c #BB3A00",
"V  c #C23C00",
"C  c #C13E00",
"Z  c #9A5503",
"A  c #9B5503",
"S  c #9E5503",
"D  c #8A4C1C",
"F  c #924A17",
"G  c #A7460D",
"H  c #B14507",
"J  c #B74405",
"K  c #BD440C",
"L  c #A24219",
"P  c #AE481D",
"I  c #B34717",
"U  c #BC4A17",
"Y  c #B0481C",
"T  c #BA4A18",
"R  c #AE6D15",
"E  c #AC6E17",
"W  c #AD6E17",
"Q  c #80442D",
"!  c #954323",
"~  c #86503C",
"^  c #85513F",
"/  c #A64A24",
"(  c #A14B29",
")  c #A0563B",
"_  c #C04103",
"`  c #C34202",
"'  c #C74100",
"]  c #C74201",
"[  c #C94200",
"{  c #CA4301",
"}  c #CC4100",
"|  c #CE4100",
" . c #CF4100",
".. c #CD4200",
"X. c #CC4300",
"o. c #CD4600",
"O. c #C94606",
"+. c #C04408",
"@. c #C54608",
"#. c #D14100",
"$. c #D04200",
"%. c #D14200",
"&. c #C45202",
"*. c #C35403",
"=. c #CB4C11",
"-. c #825140",
";. c #825241",
":. c #8D5D4D",
">. c #8D5E4E",
",. c #895E50",
"<. c #895F51",
"1. c #8A5F50",
"2. c #946757",
"3. c #996350",
"4. c #91685A",
"5. c #A16048",
"6. c #A06049",
"7. c #876E66",
"8. c #866E67",
"9. c #82716C",
"0. c #BE8D28",
"q. c #AD8577",
"w. c gray51",
"e. c gray57",
"r. c #929190",
"t. c #9D9D9D",
/* pixels */
"                                                                                                                                ",
"% % % % % % % % % % O e.E E E E E e.e.e.e.e.e.Z Z Z e.    a a e.e.e.e.e.E E E a a t %   O O O O O O O O O O % % % % % % % % % % ",
"% % % % % % % % % % O e.w.Z Z Z Z t a E E w.b b E E a     a b b a E t E 0 0 0 ; % %       a 0 0 0 0 z z z z z O O O O O O O O O ",
"a a a a a a a a   % O e.w.Z Z Z ; t E E 0 b b b ; Z t     t e.z a t E t ; ; ; % t %       0 E 0.0 ; a z b E E E t z E E z z z z ",
"w.b Z z z a a a   % O e.w.0 0 ; ; t E 0 a a t z z 0 %     t b a z a a a t ; ; % a %       0 0.Z ; t t z e.E 0.0.O t E E ; t w.w.",
"b a Z Z % a t a   % O e.b 0 ; ; a t t a t 0 z z a ; %     O a E 0 a b z t ; % a % %       0 0.; t a z 0.E t 0 0 O t 0 ; ; O a t ",
"z t ; % a a a a   O O e.w.0 ; ; t a t t t 0 a z a a %     O t 0 ; Z a z b a t t % O       ; 0 ; t t E E E t ; 0 O a t O b b E b ",
"z e.t b a b a %     O e.w.a t t t a t w.t ; t b a b %     O t a a z a a z a t t O         ; ; t a a t E t t ; ; O a b a e.z 0 e.",
"t a a a b a O O     O e.b z z t z E t t a t a a a a %     O % t t % % O O                 t t a t z a z a z t O z b a e.b b b z ",
"e.a b a a % O O     O e.t.a b z t E Z z z ; a z b b %     O O                             t z z a 0 t a b a t b z z b w.e.a e.a ",
"a a a a % O         O e.e.z z z t E 0 a t ; z b z a %       O                             t z t 0 O a a 0.t a a b a t t a z a a ",
"% % O O O           O a e.z t t E Z 0 z a z a a a z t       O O O O t t a a a e.e.;       a z a z t z t 0   % % t O O O t t t t ",
"                    % a e.w.a t a 0 a a a b a b 0 a %       O t a 0.0.e.e.e.w.w.e.E ;     % a a t t % O ;                       ",
"                    % a a w.a b a b a z b z b z t t %         a 0.E 0 a z a a z 0 a ;                                           ",
"                    % O a w.b a a t a b z a a t ; % %       O a E ; t b a 0.b a 0 % ;                                           ",
"% O                 % O a b a a t E 9 g ,.4.r j ; % a O     O a 0.; t z E 0.t a ; 5 2 & 6 6 % % % %   O O O O O O O O O O O O O ",
"z z z z z z z t t     % O b b ; a 0 1 #.#.#.#.X.9.t % %     O 0.0.t b b 0.0.z a ; 7 #.#.#.#.A Z t % O % t z z z z z z z z z z z ",
"w.E Z e.e.E 0 a a     % O a b ; t t e #.#.#.#.#.Y a a O     O 0.t a t a 0 ; z b a 7 #.#.#.#.A ; t   O t b E E E e.Z a z E E E e.",
"E Z ; Z Z 0 ; % a     % O a t t t a 2.#.#.#.#.#.#.~ % O     O t a b a 0.t t t % % 7 #.#.#.#.: % t   O t E E E t 0.0 t a E 0 ; a ",
"Z ; a Z 0 ; ; % a     O % O t t a a e #.#.#.#.#.#.' #       O a a a a % % O O     - #.#.#.#.: a %   O t E E t t 0 0 t t E 0 ; a ",
"; a a Z 0 ; ; % %     O % O t % %   = #.#.#.#.#.#.#.n         % % O               - #.#.#.#.: a %   O t a t a t 0 t t a E 0 ; t ",
"a b z Z ; % % b %     O % O         = #.#.#.#.#.#.#.#.*         %                 - #.#.#.#.s a %   O a z b a b a t b z a 0 ; a ",
"b a t t % a a a %       % % O       = #.#.#.#.B #.#.#.C $ O O a a t 0 0 0 0 0 t % - #.#.#.#.s b t   O a b z 0.t a b z a b t z t ",
"a E 0 t a b e.t O       a E E Z 0 z >.#.#.#.#.4 #.#.#.#.*.Z w.t.t.t.E E E E Z 0 ; - #.#.#.#.r.a a   O t t a b a b t 0.t t b z a ",
"a 0 ; a a z a t O       E Z Z 0 t t >.#.#.#.#.+ G #.#.#.#.h a t a t 0 t 0 ; 0 ; ; - #.#.#.#.s b 0.  O 0.a t a t 0.0.t a z t a t ",
"t ; a e.b a z %         Z 0 ; t t t e #.#.#.#.+ u =.#.#.#._ R a t t t a ; t 0 ; ; - #.#.#.#.s a 0   O 0 ; a t 0.Z ; ; ; a a % a ",
"t t t t t % O           Z ; t t z ; D #.#.#.#.+ t q.#.#.#.#.m t E E a t ; a ; t ; - #.#.#.#.s a ;   O ;     O ; ; ; ; O O % % % ",
"% O O                   Z ; t z z t 1 #.#.#.#.+ t t.&.#.#.#.$.w E ; t a t t t t ; - #.#.#.#.s e.;   O                         O ",
"                  O O O t.t t a ; a 1 #.#.#.#.+ t t.S ] #.#.#.K y a t z Z ; b t ; - #.#.#.#.r.a %   O                           ",
"O t z z z t a a a b O   t.t z a ; a e #.#.#.#.+ t t.Z ^ #.#.#.#.) t z t Z ; z % ; - #.#.#.#.v a %   O                           ",
"t a b Z Z b b b a a t   t.a w.a ; a ;.#.#.#.#.+ t t.a E H #.#.#.| 7.t a Z ; a % ; - #.#.#.#.s Z %   O ; 0 0 0 Z Z ; ; O O O O % ",
"t z Z Z ; t a a b a O   t.z b z t t 2.#.#.#.#.+ t t E 0 > { #.#.#.U i t Z ; t % ; - #.#.#.#.A 0 %   O a 0 ; 0 0 0 Z Z Z ; t   % ",
"t Z 0 ; t a b Z Z b t   t.b w.z a b >.#.#.#.#.X % t 0 ; t Q #.#.#.#.5.t Z ; a O   - #.#.#.#.A ; %   O t a a 0 0 ; ; ; ; ; t   % ",
"t Z 0 a z a z Z ; a t   e.w.b b a a >.#.#.#.#.X % a t.a E E J #.#.#...8 Z ; t O   - #.#.#.#.A ; %   O e.b a 0 ; a a ; t a t   O ",
"t b a a b b z Z ; a %   e.e.a z t b 2.#.#.#.#.X % a t.b E ; < } #.#.#.I 0 ; t O   - #.#.#.#.: ; ;   O w.a b 0 ; z b b t b t   O ",
"t a w.b z a Z 0 ; a %   e.e.z z E a >.#.#.#.#.X O a w.b ; ; t 6.#.#.#.#.F t t     - #.#.#.#.: ; ;   O b b a 0 ; t z t t z %   O ",
"t e.w.e.b a ; ; ; b %   w.e.w.b Z a >.#.#.#.#.X O % z e.; t t d T #.#.#.[ p a     - #.#.#.#.: ; ;   O a z z 0 ; a t b a t %     ",
"t e.w.z a t ; ; a a %   z e.w.z a a 2.#.#.#.#.X   % a b t t z z 8.| #.#.#.P %     - #.#.#.#.: ;     O t % O % % % % % % % %     ",
"t e.w.b Z ; a a b t %   t e.a w.z z ;.#.#.#.#.X   % O a a a a % % M #.#.#.#.,     - #.#.#.#..     O O                           ",
"t e.w.a a t a Z 0 a %   t e.t b w.Z >.#.#.#.#.X                   X N #.#.#.V o   - #.#.#.#.@ O O O O O O O                     ",
"t e.Z Z t a Z 0 ; a %   % t.b w.z a ;.#.#.#.#.X                   O 3  .#.#.#.L t -.#.#.#.#.i t ; ; ; ; t t t t t t t t t t   % ",
"t Z Z ; a t 0 ; ; t %   O e.a z t ; ;.#.#.#.#.X     t 0 0 0 0 0 0 0 ; ! #.#.#.#.1.:.#.#.#.#.l E E E Z ; b b 0.Z b E Z ; b t   % ",
"t Z ; t t t a ; ; t     O e.w.z b ; >.#.#.#.#.X     ; E E E E E E E E q +.#.#.#.` 3.#.#.#.#.W Z ; ; ; z z 0.Z b b Z Z Z ; t   O ",
"t Z ; t a a a b a %     O e.b b z a 2.#.#.#.#.X     ; E Z Z Z Z Z Z Z ; f %.#.#.#.o.#.#.#.#.A ; a t E E Z t z b Z 0 Z ; t %   O ",
"t Z ; a b a b a a %     O e.z z b b >.#.#.#.#.X       Z Z 0 0 0 0 0 0 ; ; ( #.#.#.#.#.#.#.#.v t a E Z Z t z b z a a Z a a %     ",
"O ; t w.a e.e.a t %     O e.; z b x ;.#.#.#.#.X       a a a 0 ; 0 ; ; ; ; k @.#.#.#.#.#.#.#.i a E t t t t z z t b a Z a z %     ",
"O a a w.b t z e.%       O z a a a a ;.#.#.#.#.X       b e.b 0 ; ; ; ; a z b <.#.#.#.#.#.#.#.W t a t a a a 0.Z z a z Z a b %     ",
"O t t a t % % a %       O t t a a b ;.#.#.#.#.X       z e.w.; a z a a t t a 0 / #.#.#.#.#.#.l a a z b t z Z ; a b z a a z %     ",
"O     % % % % % %     O O t t t t t e #.#.#.#.X       a e.w.a t z b Z Z ; z a c O.#.#.#.#.#.A a Z a t z Z ; t a z z Z Z a %     ",
"% % %                 O             = #.#.#.#.X       a w.z b z t z Z Z ; a b z :.#.#.#.#.#.: t z b z a t t a t a a z t a %     ",
"O O O O               O                               a t a a a z a ; ; ; a z a t a z 0.Z ; a a z t a z z b z a E t a t a %     ",
"O t a E E E 0 a t O O %                               % O               % a a t a Z z ; ; t t z b b z a a t z z t t t t t %     ",
"O a E 0.E E E E Z 0 a a a t % O                     O % O O               O % % % % % % % % % % % % % % % % % % % % % % %       ",
"O a E 0.Z a a a t a b Z 0.0.E E E Z Z Z Z Z ; a t a t t % % O O O O O                                                         O ",
"O a b t Z t b b z b z b a a a 0 0 0 0 0 0 0 0 ; z z b z z z z z a O % O                                                     O O ",
"O a b b t b z a a t b a z b z z a a a a a ; ; ; a t b e.0.0.a b t   O % O O O                                           O O O % ",
"O a z w.b z b 0.Z ; z z w.a w.b b E 0 t z a a a a z a a 0.; a t t     % O ; Z Z Z t O O O % % % ; Z 0 ; ; ; ; O O O O O % % % % ",
"O a b b a z t Z ; ; b a b w.z z a w.b b a b z w.z t a w.a a z t %     O O Z ; ; ; t e.e.z % % 0 E E E 0 t E a a w.E z t t O O % ",
"O a a a t t t ; ; a t a t a t a t t t a t a a a t t t t t t t % %       O t ; ; ; t z z z t % a t t t t t a a a E 0 a a e.t   % ",
"O a t O                                                                 O z ; ; t t t t a t O a a z a a E E a a 0 ; a b a %   % ",
"O                                                                       O   ; ; % z t z a t O t a t a E E 0 t a ; a a b a %   % ",
"% O                                                                       O ; ;               O % % ; ; % % % ; ; % % % % %   % ",
"% % % % O O O O O O O O                                                   O O O O             O O                             % ",
"                                                                                                                                "
};
