/* XPM */
static char *_237_eab6611a75c49b7285dbff6ba0876fc6cbfa420cb66b2aa2be9f1f5d57525404[] = {
/* columns rows colors chars-per-pixel */
"64 64 235 2 ",
"   c #2F2F2F",
".  c #322F2D",
"X  c #382F2C",
"o  c #35302D",
"O  c #39302C",
"+  c #3E3E3E",
"@  c #513D1E",
"#  c #533F1E",
"$  c #553F1D",
"%  c #6E351E",
"&  c #653E19",
"*  c #6B3E18",
"=  c #7A3D13",
"-  c #783F14",
";  c #7A3519",
":  c #453029",
">  c #44312B",
",  c #593224",
"<  c #463E3B",
"1  c #783E28",
"2  c #793E28",
"3  c #5E463F",
"4  c #665029",
"5  c #734635",
"6  c gray28",
"7  c #4E4745",
"8  c #484847",
"9  c #494847",
"0  c #584640",
"q  c #5E5856",
"w  c gray35",
"e  c #775448",
"r  c #6E6967",
"t  c #6A6A6A",
"y  c #716865",
"u  c #767676",
"i  c #777776",
"p  c #787675",
"a  c #9E3A0B",
"s  c #99390F",
"d  c #993A0F",
"f  c #863716",
"g  c #A33E06",
"h  c #AB3C07",
"j  c #A73B09",
"k  c #B63D02",
"l  c #B73D02",
"z  c #B03C04",
"x  c #BF3F01",
"c  c #803E25",
"v  c #C03E00",
"b  c #9A5503",
"n  c #9A5603",
"m  c #9E431C",
"M  c #9B441F",
"N  c #AF4E01",
"B  c #A8460D",
"V  c #BC4206",
"C  c #B74B00",
"Z  c #B34C00",
"A  c #B34D00",
"S  c #B4420D",
"D  c #BD440C",
"F  c #A45302",
"G  c #A75202",
"H  c #BC5C08",
"J  c #BC5D08",
"K  c #A3431A",
"L  c #B6640E",
"P  c #AC6E17",
"I  c #B36812",
"U  c #B16A13",
"Y  c #944323",
"T  c #924325",
"R  c #9E4C2B",
"E  c #934D33",
"W  c #84513F",
"Q  c #B74D20",
"!  c #B44C22",
"~  c #AC502D",
"^  c #AF5734",
"/  c #B05632",
"(  c #BF5A32",
")  c #BE5C36",
"_  c #BC603C",
"`  c #BF633F",
"'  c #C04002",
"]  c #C64000",
"[  c #C64101",
"{  c #C14700",
"}  c #C64500",
"|  c #C54600",
" . c #C64600",
".. c #C44405",
"X. c #CB4200",
"o. c #C94302",
"O. c #CD4000",
"+. c #CE4000",
"@. c #CE4100",
"#. c #CF4100",
"$. c #CE4300",
"%. c #C94503",
"&. c #CF4500",
"*. c #CE4502",
"=. c #CE4702",
"-. c #CA4A00",
";. c #CF4907",
":. c #CE4A0A",
">. c #D04000",
",. c #D14100",
"<. c #D24100",
"1. c #D04200",
"2. c #D14200",
"3. c #D04300",
"4. c #D24200",
"5. c #D04400",
"6. c #D04500",
"7. c #D04702",
"8. c #D14900",
"9. c #D34A07",
"0. c #CD5202",
"q. c #CD5302",
"w. c #C54910",
"e. c #C94C13",
"r. c #CC4D13",
"t. c #C6501E",
"y. c #CA501A",
"u. c #C8511D",
"i. c #CC521D",
"p. c #CF541E",
"a. c #DB6A00",
"s. c #DC6D00",
"d. c #D2600B",
"f. c #D1630D",
"g. c #DE7900",
"h. c #C27D1E",
"j. c #C75423",
"k. c #C1572B",
"l. c #CD5828",
"z. c #CD592A",
"x. c #CE5A2A",
"c. c #D15622",
"v. c #C05A30",
"b. c #C65F36",
"n. c #C27F20",
"m. c #D07B20",
"M. c #D07F22",
"N. c #C5613A",
"B. c #D0663E",
"V. c #815241",
"C. c #8C5D4D",
"Z. c #975942",
"A. c #955A44",
"S. c #A15F47",
"D. c #846156",
"F. c #916859",
"G. c #9F6B59",
"H. c #A06049",
"J. c #BF6441",
"K. c #BE6645",
"L. c #BC6A4B",
"P. c #AD725E",
"I. c #B87057",
"U. c #B5745D",
"Y. c #8B6B62",
"T. c #8D7B75",
"R. c #867F7D",
"E. c #A77B6C",
"W. c #B37864",
"Q. c #B47864",
"!. c #BD7860",
"~. c #B17E6D",
"^. c #CA6641",
"/. c #CD6943",
"(. c #C96945",
"). c #CB7353",
"_. c #C5795D",
"`. c #CA795C",
"'. c #BF8925",
"]. c #BE8D28",
"[. c #C18121",
"{. c #C08825",
"}. c #D08726",
"|. c #CFAA3D",
" X c #D0A93B",
".X c #FFFB00",
"XX c #FFFB2C",
"oX c #9C867F",
"OX c #A18277",
"+X c #AD8476",
"@X c #AC8577",
"#X c #AC8678",
"$X c #C3816B",
"%X c #C28671",
"&X c #C88B76",
"*X c gray51",
"=X c #998A85",
"-X c #968D8A",
";X c gray57",
":X c #9E9B9A",
">X c #9E9C9B",
",X c #9D9D9C",
"<X c #9D9D9D",
"1X c #A78D85",
"2X c #A59089",
"3X c #A3938F",
"4X c #A4928C",
"5X c #BF9587",
"6X c #BE9B8F",
"7X c #A19793",
"8X c #A09895",
"9X c #A09996",
"0X c #BD9E94",
"qX c #ABA19E",
"wX c #BBA69F",
"eX c #A9A5A3",
"rX c #A9A6A4",
"tX c gray66",
"yX c #B9AEAA",
"uX c #B8B1AF",
"iX c #B6B6B6",
"pX c #B8B1B0",
"aX c #B8B3B1",
"sX c #D8A290",
"dX c #D9AFA2",
"fX c #C3B3AE",
"gX c #C2B5B0",
"hX c #C0C0C0",
"jX c #CBC8C7",
"kX c #CBCBCA",
"lX c #CBCBCB",
"zX c gray86",
"xX c #EFE0DB",
"cX c #E2E2E2",
"vX c gray95",
/* pixels */
"+ + + + + + + + + + + + + + + + + + + + + + + + + + + + + + + + + + + + + + + + + + + + + + + + + + + + + + + + + + + + + + + + ",
"t t t t t t t t t t w cX|.|.|.|.|.cXcXcXcXcXcX|.|.|.cX  6 <XiXcXcXcXcXcX|.|.|.*X<X<Xt   w w w w w w w w w w t t t t t t t t t t ",
"t t t t t t t t t t w cXzX|.|.|.|.tXiX|.|.zXlXlX|.|.<X  6 <XlXhX<X|.;X|.].].].b t t 6   6 *X].].].].;X;X;X*Xu w w w w w w w w w ",
"<X<X<X<X<X<X<X<X  t w cXzX|.|.|.b tX|.|.].lXlXlXP |.u   6 iXcXiX<X;X|.;Xb P b t ;Xt 6   6 ].|..X].b <XhXlX|.|.|.u u |.|.<X<X<X<X",
"zXhX|.hXhXiX<X<X  t w cXzX].].P b tX|.].iXiXtX<X<X].t   6 <XlX<X<X<XiXiXu P b t *Xt 6   6 ]..X|.b u ;XhXcX|..X.Xw u |.|.P ;XzXzX",
"iXiX|.|.t *X;X*X  t w cXlX].P b *X;XtXiXtX].<X*X<XP t   6 w iX|.].iX<X<X;X4 t *Xt t 6   6 ]..Xb u <XhX.X|.;X].].w u ].P b w <XtX",
"hXtXb t <X<X<X*X  w w cXzX].b b ;XiXtXtXtX].<XtX*X<Xt   6 w ;X].P |.<XiXiX*Xu *X6 6 6   6 P ].b u ;X|.|.|.;Xb ].w *Xu w w u |.;X",
"hXhX;X<XiX<X*Xt   6 w cXzX<X;X;XtXiXtXzX;XP tXiX<X<Xt   6 w *X<XiX<XiX<X<X<XiX*X6 6 6 + 6 P b u <X<X;X|.;X;Xb b w *X;X<X*X;XP u ",
"tXiXiX*X*X<Xw w   + w cXlXiXtX;XtX|.tXtX<XtX<X<XiX<Xt     w t *X*Xt t 6 6 6 6 6 6 6   6 6 ;Xu <X;XiXiX;X<XiX;Xw *X<XtX<X<XiX;Xu ",
"<X<X<X<X*Xt w w   + w cXvXiX;XtX;X|.|.*X<X<X<XiX<X<Xt +   w w 6 6 6 6 6 6 6 6 6     6 6 6 ;XhXhX<X].;XtX;X;XtXu *XtX<XtX<X<XiX<X",
"*X*X*X*Xt w 6 6   + w cXcX<X;XtXtX|.].*XiX<XiX<XiX<Xt +   6 w 6 + +           + + 6 6 6 6 ;XhX;X].w <XiX.X;X<X*X<X*XtXu *X<Xu u ",
"t t w w w         + w iXcXiXtX;X|.|.].*XtX<X<X;X<X*Xu 6   6 w w w w *XiXiXiXiXcXcXb 6 6 6 *XhX<X;Xu u ;X].6 t t u w w w w w w w ",
"          + + + + 6 t <XcXzX<X;X<X].*X<X<XiX;X<X].<Xt 6   6 w *XiXXXXXcXcXcXzXzXcX|.b 6 6 t <X*Xu u t w 4 6 6 6 6 6 6 + + + + + ",
"+ + + + + + + + + 6 t *XiXzX<XiX<X<X<XiX<X<XtX<Xu u t 6   + 9 uXXX|.].<X<XiX<XiX].*X4   6 6 6 6 6 6 6 6 6 6 6 + +               ",
"6 6 6 6 6 6 6 6 6 6 t w <XzXiX<XiXtX*XtX<X;X<XiXP r A.m h ' #.,.8.-.) _.+X.X.X<X].t b 6 6 + + + + + + + + + + 6 6 6 6 6 6 6 6 6 ",
"t w 6 6 6 6 6 6 6 6 t w *XlX<XiXtX|.].*XiX<XiX7XC %.,.,.,.,.,.,.,.,.,.,.,.s.E.<XP t 4 6 w w t t t t   w w w w w w w w w w w w w ",
"tXtXtXtXtXtXtXtXtX+   t w lXlXP <X].P iX*X<XQ.&.,.,.,.,.,.,.,.,.,.,.,.,.,.,.,.j.F t 6 6 w .X|.|.u t w t ;XtXtXtXtXtXtXtXtXtXtXtX",
"zX|.|.cXcX|.].*X*X6   t w <XlXb u tXu <X*XG.4.,.,.,.,.,.,.] D a.=.,.,.,.,.,.,.,.y.y 6 6 6 |.|.P u + w ;XlX|.|.|.cX|.iXiX|.|.|.cX",
"|.|.P |.|.].b t *X6   t w *XtXu u <X<X*X#X3.,.,.,.2.Q W o   w ;X<X-X#Xg.,.,.,.,.,.! 8   6 ].P t u   w tX|.|.|.;X.X].;XiX|.].P *X",
"|.P iX|.].P b t *X6   w t w tXtX*X<Xu T.$.,.,.,.3.C.w +     + iX<X*X<X*XD.[ ,.,.,.,.T   u ].P *Xt   w tX|.|.;XtX].].;XtX|.].P *X",
"P iX<X|.].b b t t 6   w t w u t t 6 6 Y ,.,.,.,.%           + <X*X6 6 6   , O.,.,.,.O.O u <XP <Xt   w tXiX;X<XtX].;X;XiX|.].P tX",
"iX<XiX|.b t t <Xt 6   w t w + + + +   x ,.,.,.v             + 6 t 6         c ,.,.,.,.1 <XiX<XiXt   w <XiXtXiXtXiX;XiX;XiX].b *X",
"<XiX;X;Xt *X<X*Xt 6   6 t t w 6     . >.,.,.,.a w w w w w w w <X<XtX].].].].'.3.,.,.,./ lXcXiXlXu   w <X<XiX.XtX<XiXtXiXiX;X;XtX",
"<X|.].;X<X<X<Xu w 6   6 <X|.|.|.].<XfX,.,.,.,.E u ].|.|.|.|.zXvXvXvX|.|.|.|.|.q.,.,.,.k.cXlXcXiX*X  w ;XtXiXtX<XiXtX.XtX;XiXtXiX",
"<X].P iX<X<X<Xu w 6   6 |.|.|.].;X;X=X,.,.,.,.R ].|.|.*XtXiXiXtXiXtX].;X].P ].H | z S J.cXiXiXlX.X  w .XiXtXiXtX.X.X;XiXtXtXiXtX",
"tXP <X<X<X<X*Xt 6 6   6 |.].P u u u p 1.,.,.,...eXvXtXtX].tX|.iXtXtX;XiXP ;X].b 4   6 <X.X<X<XiX].  w ].4 *Xu .X|.P b 4 *X*Xt *X",
"u u u u u t w 6 6 6   6 |.P u u tXP ].} ,.,.,.,.b.xX.XiXtX|.P tX|.|.iXtXP iXP u 4   6 <X|.*X<XiXb   w 4 6 6 w 4 4 4 4 w w t t t ",
"t w w 6 6 6         + 6 |.P u tXtX;XP N ,.,.,.,.,.9.M.pX|.].;XtX|.P tXiXtXtX;Xu @   6 <X*X<XiXcX4   w + +                 6 6 w ",
"            + + + w w w vXu tXiXP <XP n ^ ,.,.,.,.,.,.5.d.Z oXiXtXiXtX;X|.P ;Xu @   6 .XvXiXcXiXt   w 6 6 6 6 + + +             ",
"w u u *X<XtX<X<X<X<Xw   vXtXtXiXP <Xu ;Xi g ,.,.,.,.,.,.,.,.,.;.v.!.6XrX|.P ;Xt @   6 |.vXlXlXiXt   w 6 6 6 6 6 6 6 6 6 6 6 6 6 ",
"u <XhX|.|.<XiXiXiXiXu   vXiXzX<Xb iX<X;Xu # f o.,.,.,.,.,.,.,.,.,.,.,.7.f.J 3Xt @   b ].cXiXiX|.t   w b ].].].|.|.P P w w w w t ",
"u hX|.|.P u iXiXiXiXw   vXiXtXiX;X<X;X<Xu @   q P.i.,.,.,.,.,.,.,.,.,.,.,.,.3.~ &   6 ].cXcX|.].t   w *X].b ].].].|.|.|.P tX6 t ",
"u |.].P u <XiX|.|.*Xu   vXzXiXtXiXP <XiXu @   6 t tX[.A ( *.,.,.,.,.,.,.,.,.,.,.#.d 7 ].cXiX|.b t   w tX*X*X].].P P b b b ;X6 t ",
"u |.].*X*XiX*X|.P *Xu   vXtX<XtXiX<X<X;Xu @   + t iXvXiX|. Xn.W._ e.,.,.,.,.,.,.,.,.{ >XzXlX|.4 t   w cXiXiX].b *X*X4 u *Xu 6 w ",
"u *X<XiX<X*X<X|.b *Xt   cXiXiXiXtXiXiX;Xu @   + t <XvXlX|.P b ;XtXtX2X$X0.<.,.,.,.,.,.K.zXiXP b @   w zXiX<X].b <X;XtXu tXu 6 w ",
"u iXiX<XiXiX|.].b *Xt   cXlX;XtX|.|.;X<Xu @     w *XzXlXP b u ;X<XiXtX|.].Y.w.,.,.,.,.,.sX<Xb 4 @   w lXiXiX].b ;X<XtXtXiXt 6 w ",
"u cXtXiX<X<XP b b *Xt   lXcX<XtX|.P <XiXu @ @   w t hXcXb u ;X<XiX<XP u u u R.K ,.,.,.,.l.;Xb @ 4 6 w iXiX<X].P *XtX;X*XtXt 6 6 ",
"u cXiXiX<XtXb b *X*Xt   hXcX;XiX<X8X@X@XF.- $   6 t <XlXtX;X;X*X*X*Xu u *X*Xt 8 l ,.,.,.,.0 4 4 6 6 w *Xt w t t t t t t t t 6 6 ",
"u cXhX<X|.P <X*X<XtXt   tXcXiX;XiXwX,.,.,.,.*   6 t w <X<X*X*Xt t w   @ w t w   ; ,.,.,.,.e 6 6 6 w w                         6 ",
"u cXhXiX<XtX<X|.].*Xt   ;XcXtXtXiX9X,.,.,.,.=   + w w 6 + + +     + + + 6 6 6 6 5 ,.,.,.,.V.w w w w w w w w 6 6 6 6 6 6 6 6 6 6 ",
"u cX|.|.tX<X|.].P *Xt   t vXiXiX<X<X=.,.,.,.B   + w w w 6 6 6 6 6 w w w t t u u H.,.,.,.,.OX;X;XP P P P ;X;X;X;X;X;X;X;X;X;X6 t ",
"u |.|.P iXtX].b b u t   w vXtX<X].;X` ,.,.,.X.> + 6 u ].].].].].].].P ;X;X<XtXtX(.,.,.,.,.gXhX|.|.|.|.P lXlX.X|.lX|.|.P lX;X6 t ",
"u |.P ;XtXtX<Xb b u   + w vXiX<XP u 5X,.,.,.,.k X 6 b |.|.|.|.|.|.|.|.].iXlXiXjX:.,.,.,.c.kX|.|.P P P hXhX.X|.lXlX|.|.|.P u + w ",
"u |.P ;XiX<X<X<X<Xt   + w vX<XiXu u :Xu.,.,.,.,.j 9 b |.|.|.|.|.|.|.|.P iXlXaX^.,.,.,.,.%XtX|.P iXtX|.|.|.;X<XlX|.].|.P ;Xt + w ",
"u |.P <X<XiX<XiX<Xt   6 w cXiXiXiXiX<X0X2.,.,.,.,.V 2  X|.].].].].].].P b 4XB.,.,.,.,.z.uXtXlXtXiX|.|.|.;X<XtXiX*X*X|.*X*Xt + 6 ",
"w P ;X<XiX<XiX<Xu t   6 w zX<X<XiX<X<X<XS.,.,.,.,.,.,.r.I.~.h.U {.I L Z  .,.,.,.,.,.t.qXlXtXtXiX|.;X;X;XtXiXiXtX<X<X|.*X*Xt + 6 ",
"w <X<X<X<X;Xu t t   + 6 w hXiX<X<XiX<X;Xu Z.#.,.,.,.,.,.,.,.,.,.,.,.,.,.,.,.,.,.,.x.7XtXtX|.|.tX<X;X*X<X<X.X|.hXiX<X|.*X*Xt + 6 ",
"w ;X;X*Xu t t t t   + 6 w tXtXiX<X<X<X*Xu t 3 s +.,.,.,.,.,.,.,.,.,.,.,.,.,.,.6.).yX<XhX|.iX<X<XiX<X<XtXhX|.P iXtXtX*X*X*Xt   6 ",
"w 6   t t t t t t   6 w w ;Xu u u u u u t t 6   : M @.,.,.,.,.,.,.,.,.,.,.p.U.7XhXtXiXhXiX<X|.iX|.iXtXhX|.P tXiXiXtX|.|.*Xt   6 ",
"t t t + +     +   + 6 w 6 6 6 6 6 6 6 6 6 6 6     + < 1XdX&XL./.N.`.m.}.G ,XhX<XhXtX<X<X.X|.b tXiXlXtXiXtXtXiXtX<X<XhX;X*Xt   6 ",
"w w w w 6 6 + + + + 6 w 6 6                         + <XtX*X*X*X*X*XP b b <XiX*X;X<XhX.X|.b iX<XiXtX<X<XhX;X<X<X|.tX<XtX*Xt   6 ",
"w ;XiX|.|.|.].<Xu w w t 6 6 + + + + + + + + + + + + 6 t w 6 + + + + + + t *X*X;X<X|.hXb b ;X;X*Xu ;X<X<X<X;X;XhX;Xu ;X;Xu t   6 ",
"w iX|..X|.|.|.|.|.].iX<X*Xu t w 6 6 6 6 6 6 6 6 6 6 w t w w 6 6 6 6 6 6 + w t t t t t t t t t t t t t t t t t t t t t t t   + 6 ",
"w iX|..X|.<X<X<XtXiXlX|..X.X|.|.|.|.|.|.|.|.P *X;X*Xu u t t w w w w w 6 6 + + + + +     + + + + + +                       + 6 w ",
"w iXlXtX|.tXlXlXhXlXhXlXiX<X<X].].].].].].].].P <X<XlXiXiXiXiXiX<Xw t w 6 6 6 6 6 6 6 6 6 + + + + + + + + + + + + + + + 6 6 w w ",
"w iXlXlXtXlXhXiXiXtXlXiXhXlXhXiX<X<X<X<X<XP P P <XtXlXcX.X.X<XlX;X6 w t w w w 6 6 6 6 6 6 6 6 6 6 6 6 6 6 6 6 6 6 6 6 6 w w w t ",
"w iXhXzXlXhXlX.X|.P hXhXzXiXzXlXlX|.].tX<X<X<X<X<XhXiX<X.XP <X;Xu   6 t w P |.|.|.u w w w t t t b |.].P b b 4 w w w w w t t t t ",
"w iXlXlXiX<X;X|.P 4 lXiXlXzXiXiXiXzXlXlXiXlXiXzXiX;XiXzXiX<X<Xu t   6 w w |.P P P u cXcXhXt t ].|.|.|.].;X|.iXiXzX|.hXtX;Xw w t ",
"w iX<X*Xu u u P 4 *X;X*Xu *X;X*Xu u u *X;X<XiX<X;Xu u u u u u t t 6   6 w u P P b u hXhXhXu t <X;X;X;X;X;XiXiX<X|.].*XiXcXtX  t ",
"w <Xu w 6 6 6 6 6 6 6 6 6 6 6 6 6 6 6 6 6 6 6 6 6 6 6 6 6 6 6 6 6 6   + w hXP b u tXu tX<Xu w <X<XiX<XiX|.|.iXiX].P *X<XiXt   t ",
"w 6                                                                   + w 6 @ 4 t u u u u u w u u tXiX|.|.].;XiXP *X*X<X<Xt   t ",
"t w 6 6 6 + + + + + + + + + + + + + + + + + + + + + + + + + + + + + + + 6 w @ @ 6           6 w t t b 4 t t t b 4 t t t t t   t ",
"t t t t w w w w w w w w 6 6 6 6 6 6 6 6 6 6 6 6 6 6 6 6 6 6 6 6 6 6 6 6 6 w w w w 6 6 6 6 6 6 w w                             t ",
"6 6 6 6 6 6 6 6 6 6 6 6 6 6 6 6 6 6 6 6 6 6 6 6 6 6 6 6 6 6 6 6 6 6 6 6 6 6 6 6 6 6 6 6 6 6 6 6 6 6 6 6 6 6 6 6 6 6 6 6 6 6 6 6 "
};
